/* XPM */
static char * back_ok_xpm[] = {
"64 64 491 2",
"  	c #9CDB43",
". 	c #000000",
"+ 	c #070400",
"@ 	c #040300",
"# 	c #0C0601",
"$ 	c #0D0602",
"% 	c #000100",
"& 	c #34211D",
"* 	c #33211D",
"= 	c #3F2924",
"- 	c #34211E",
"; 	c #030000",
"> 	c #2A1B16",
", 	c #49332F",
"' 	c #281A16",
") 	c #281915",
"! 	c #49322E",
"~ 	c #563D37",
"{ 	c #563D38",
"] 	c #2A1C18",
"^ 	c #0E0702",
"/ 	c #160E09",
"( 	c #150E09",
"_ 	c #2E1C18",
": 	c #49332D",
"< 	c #5C433D",
"[ 	c #48322D",
"} 	c #37221E",
"| 	c #46302C",
"1 	c #5B423D",
"2 	c #644944",
"3 	c #644A44",
"4 	c #5C433E",
"5 	c #48322E",
"6 	c #3C2722",
"7 	c #3C2723",
"8 	c #402A24",
"9 	c #412B26",
"0 	c #382521",
"a 	c #150B08",
"b 	c #1A1513",
"c 	c #322420",
"d 	c #5A403B",
"e 	c #644B46",
"f 	c #593F3A",
"g 	c #523834",
"h 	c #583F3A",
"i 	c #634944",
"j 	c #694F4A",
"k 	c #644A45",
"l 	c #5B413B",
"m 	c #553C36",
"n 	c #513934",
"o 	c #45302B",
"p 	c #34231D",
"q 	c #0B0602",
"r 	c #1A1514",
"s 	c #4B3834",
"t 	c #5A433F",
"u 	c #5F4641",
"v 	c #634A45",
"w 	c #674D48",
"x 	c #664D47",
"y 	c #624A44",
"z 	c #604742",
"A 	c #664C47",
"B 	c #684E49",
"C 	c #573F3B",
"D 	c #332420",
"E 	c #332521",
"F 	c #674E48",
"G 	c #664D48",
"H 	c #624944",
"I 	c #624843",
"J 	c #614944",
"K 	c #57403C",
"L 	c #3B2D29",
"M 	c #1F1917",
"N 	c #2F1D19",
"O 	c #5F4741",
"P 	c #694D48",
"Q 	c #654C47",
"R 	c #614742",
"S 	c #573E39",
"T 	c #513833",
"U 	c #523934",
"V 	c #553D38",
"W 	c #57413C",
"X 	c #4D3A36",
"Y 	c #231A18",
"Z 	c #030300",
"` 	c #241510",
" .	c #3E2924",
"..	c #533935",
"+.	c #624842",
"@.	c #674E49",
"#.	c #604741",
"$.	c #5A413C",
"%.	c #533A36",
"&.	c #503632",
"*.	c #654A45",
"=.	c #5A433E",
"-.	c #261C18",
";.	c #080501",
">.	c #35221E",
",.	c #412926",
"'.	c #472F2A",
").	c #533A35",
"!.	c #654B46",
"~.	c #533B36",
"{.	c #523935",
"].	c #5E4641",
"^.	c #59433D",
"/.	c #241B17",
"(.	c #452E29",
"_.	c #4F3732",
":.	c #58403A",
"<.	c #624A45",
"[.	c #5B4440",
"}.	c #372622",
"|.	c #322320",
"1.	c #543E39",
"2.	c #614843",
"3.	c #4C3531",
"4.	c #33201C",
"5.	c #020000",
"6.	c #1C1712",
"7.	c #543E3A",
"8.	c #5F4540",
"9.	c #020100",
"0.	c #130B09",
"a.	c #4B3633",
"b.	c #5F4541",
"c.	c #604641",
"d.	c #543B36",
"e.	c #523A35",
"f.	c #5E4540",
"g.	c #271914",
"h.	c #120C09",
"i.	c #30211D",
"j.	c #4B3531",
"k.	c #513A34",
"l.	c #59403B",
"m.	c #604843",
"n.	c #533B37",
"o.	c #170F0C",
"p.	c #3F2D2A",
"q.	c #4E3733",
"r.	c #5B433D",
"s.	c #513834",
"t.	c #583F3C",
"u.	c #422D29",
"v.	c #010100",
"w.	c #180F0D",
"x.	c #402D2A",
"y.	c #533C38",
"z.	c #5A423C",
"A.	c #604842",
"B.	c #30221E",
"C.	c #130D0A",
"D.	c #150E0C",
"E.	c #322321",
"F.	c #4D3632",
"G.	c #583F3B",
"H.	c #59413D",
"I.	c #5E4440",
"J.	c #553B38",
"K.	c #170F0D",
"L.	c #130E0B",
"M.	c #493430",
"N.	c #573E3A",
"O.	c #573D39",
"P.	c #654B47",
"Q.	c #5B423E",
"R.	c #553C38",
"S.	c #4E3834",
"T.	c #402D29",
"U.	c #18100D",
"V.	c #130C0A",
"W.	c #483330",
"X.	c #563D39",
"Y.	c #563D3A",
"Z.	c #5D423F",
"`.	c #664B47",
" +	c #654A46",
".+	c #644A46",
"++	c #5A413D",
"@+	c #160F0C",
"#+	c #3E2B28",
"$+	c #543B37",
"%+	c #563C39",
"&+	c #543A37",
"*+	c #593F3B",
"=+	c #624743",
"-+	c #654946",
";+	c #654945",
">+	c #644844",
",+	c #634843",
"'+	c #59403C",
")+	c #4C3532",
"!+	c #3D2A26",
"~+	c #0F0706",
"{+	c #100909",
"]+	c #31211D",
"^+	c #573C39",
"/+	c #553A38",
"(+	c #5A3F3B",
"_+	c #634743",
":+	c #664A46",
"<+	c #654845",
"[+	c #614643",
"}+	c #5C3F3D",
"|+	c #583D3A",
"1+	c #593E3B",
"2+	c #593E3C",
"3+	c #573D3A",
"4+	c #4C3431",
"5+	c #2E1F1C",
"6+	c #0B0303",
"7+	c #0C0302",
"8+	c #3C2725",
"9+	c #4C3030",
"0+	c #513535",
"a+	c #593B39",
"b+	c #5F4140",
"c+	c #624441",
"d+	c #614141",
"e+	c #5F4040",
"f+	c #5D3E3E",
"g+	c #563836",
"h+	c #533534",
"i+	c #543536",
"j+	c #513434",
"k+	c #4B3230",
"l+	c #3C2624",
"m+	c #090000",
"n+	c #060000",
"o+	c #2E1618",
"p+	c #4A2E2E",
"q+	c #563737",
"r+	c #573839",
"s+	c #583737",
"t+	c #573536",
"u+	c #563335",
"v+	c #553334",
"w+	c #563435",
"x+	c #533234",
"y+	c #533334",
"z+	c #553535",
"A+	c #2E1617",
"B+	c #050000",
"C+	c #27241D",
"D+	c #524B3E",
"E+	c #5B4E42",
"F+	c #503634",
"G+	c #4C3132",
"H+	c #56463E",
"I+	c #5A5043",
"J+	c #4D3132",
"K+	c #120003",
"L+	c #414335",
"M+	c #646C56",
"N+	c #656C56",
"O+	c #494137",
"P+	c #453C33",
"Q+	c #606650",
"R+	c #6B785D",
"S+	c #6B775D",
"T+	c #606751",
"U+	c #110003",
"V+	c #22000F",
"W+	c #464338",
"X+	c #5F6A54",
"Y+	c #626D55",
"Z+	c #4F5542",
"`+	c #515A46",
" @	c #68785D",
".@	c #738667",
"+@	c #728667",
"@@	c #464337",
"#@	c #21000C",
"$@	c #372424",
"%@	c #423F33",
"&@	c #515644",
"*@	c #5F6A53",
"=@	c #69795D",
"-@	c #708164",
";@	c #728466",
">@	c #718565",
",@	c #24000B",
"'@	c #2A000C",
")@	c #270008",
"!@	c #454035",
"~@	c #677459",
"{@	c #738567",
"]@	c #728465",
"^@	c #718264",
"/@	c #708163",
"(@	c #150001",
"_@	c #240110",
":@	c #2A0013",
"<@	c #28000B",
"[@	c #220000",
"}@	c #433E33",
"|@	c #667359",
"1@	c #728365",
"2@	c #708063",
"3@	c #6F8062",
"4@	c #443E33",
"5@	c #290013",
"6@	c #250E19",
"7@	c #3C302D",
"8@	c #474338",
"9@	c #403A30",
"0@	c #2D0414",
"a@	c #403B2F",
"b@	c #647057",
"c@	c #768769",
"d@	c #7B8C70",
"e@	c #7D8E71",
"f@	c #7D8D71",
"g@	c #2F2025",
"h@	c #504E42",
"i@	c #5C6750",
"j@	c #3D342C",
"k@	c #3F392F",
"l@	c #636F56",
"m@	c #7B8C6F",
"n@	c #8C9B7F",
"o@	c #92A287",
"p@	c #92A186",
"q@	c #2E242A",
"r@	c #4B4C41",
"s@	c #5C6952",
"t@	c #5C6A51",
"u@	c #4C5340",
"v@	c #515743",
"w@	c #677659",
"x@	c #798A6D",
"y@	c #87987B",
"z@	c #8D9D82",
"A@	c #0C0E19",
"B@	c #2E272A",
"C@	c #3A2E32",
"D@	c #383330",
"E@	c #293527",
"F@	c #3B4B37",
"G@	c #5A694F",
"H@	c #69795B",
"I@	c #708062",
"J@	c #718263",
"K@	c #6F8161",
"L@	c #6E805F",
"M@	c #6E7F5F",
"N@	c #352A26",
"O@	c #81665E",
"P@	c #987970",
"Q@	c #92726A",
"R@	c #785A54",
"S@	c #331518",
"T@	c #001A00",
"U@	c #526046",
"V@	c #708162",
"W@	c #728462",
"X@	c #728261",
"Y@	c #71815F",
"Z@	c #70805F",
"`@	c #6E574F",
" #	c #C79E90",
".#	c #E4B5A5",
"+#	c #DCAB9D",
"@#	c #B88C81",
"##	c #674640",
"$#	c #262816",
"%#	c #525842",
"&#	c #6A785A",
"*#	c #7B8C6D",
"=#	c #899A7B",
"-#	c #8F9F82",
";#	c #7C6057",
">#	c #CB9F92",
",#	c #DFB0A0",
"'#	c #D7A797",
")#	c #B58A7D",
"!#	c #64463E",
"~#	c #000009",
"{#	c #3E3F3B",
"]#	c #5C6956",
"^#	c #73826B",
"/#	c #84937C",
"(#	c #8B9A84",
"_#	c #8C9A85",
":#	c #7F635A",
"<#	c #84665B",
"[#	c #7F5E55",
"}#	c #664940",
"|#	c #250000",
"1#	c #14293D",
"2#	c #384651",
"3#	c #475559",
"4#	c #50605F",
"5#	c #5A6966",
"6#	c #5F6C6A",
"7#	c #5E6C69",
"8#	c #00000F",
"9#	c #273C4C",
"0#	c #3C4F5D",
"a#	c #405260",
"b#	c #405160",
"c#	c #3F4F5E",
"d#	c #3D4D5D",
"e#	c #3E4C5F",
"f#	c #000013",
"g#	c #2D3F4D",
"h#	c #455562",
"i#	c #4E5D6A",
"j#	c #52606D",
"k#	c #515F6B",
"l#	c #505C6B",
"m#	c #505C6A",
"n#	c #000917",
"o#	c #32424E",
"p#	c #475763",
"q#	c #525F6B",
"r#	c #56646F",
"s#	c #55636E",
"t#	c #535E69",
"u#	c #4D5862",
"v#	c #00131B",
"w#	c #35444F",
"x#	c #455660",
"y#	c #495963",
"z#	c #4B5965",
"A#	c #414C57",
"B#	c #2C333C",
"C#	c #0B191F",
"D#	c #374650",
"E#	c #445560",
"F#	c #435560",
"G#	c #40505C",
"H#	c #3A4753",
"I#	c #2A3740",
"J#	c #121E23",
"K#	c #394852",
"L#	c #465762",
"M#	c #455661",
"N#	c #3B4A54",
"O#	c #232E35",
"P#	c #02070E",
"Q#	c #11181C",
"R#	c #364048",
"S#	c #434E56",
"T#	c #434D55",
"U#	c #353F46",
"V#	c #101215",
"W#	c #0E0401",
"X#	c #31292B",
"Y#	c #3D3536",
"Z#	c #3D3436",
"`#	c #302729",
" $	c #0B0000",
".$	c #2A2313",
"+$	c #302415",
"@$	c #352117",
"#$	c #381F18",
"$$	c #381F17",
"%$	c #2E150A",
"&$	c #0E0000",
"*$	c #2B2617",
"=$	c #4A4131",
"-$	c #4D4233",
";$	c #413026",
">$	c #39201B",
",$	c #2E1811",
"'$	c #120000",
")$	c #292418",
"!$	c #4D4433",
"~$	c #524737",
"{$	c #403128",
"]$	c #341F1B",
"^$	c #331E1B",
"/$	c #2B1812",
"($	c #110100",
"_$	c #16150C",
":$	c #342D21",
"<$	c #383023",
"[$	c #291F17",
"}$	c #1E0F0B",
"|$	c #1F0E0B",
"1$	c #1A0B05",
"2$	c #17150C",
"                                                                                                                                ",
"                                                                                                                                ",
"                                                                                                                                ",
"                                                                                                                                ",
"                                                                                                                                ",
"                                                                                                                                ",
"                                                  . .         . . . .                                                           ",
"                                                  + +         @ # $ +                                                           ",
"                                              . % & & . . . . * = = - ; . . . . .                                               ",
"                                              . > , , ' . . ) ! ~ { , ] . ; ^ / (                                               ",
"                                          . . _ : < < [ } } | 1 2 3 4 5 6 7 8 9 0 a .                                           ",
"                                          b c , d e 3 f g g h i j j k l m ~ n o p q .                                           ",
"                                      . r s t u v w x y z z y A B B w e v 3 C D .                                               ",
"                                      . E t j B F w w G G G G G w w A H I J K L M                                               ",
"                                  . . N , O B P G A A Q Q Q Q A A G R S T U V W X Y .                                           ",
"                                  Z `  ...+.@.G A Q Q Q Q Q Q Q e #.$.%.&.T $.*.=.-..                                           ",
"                              . ;.>.,.'.).R w x Q Q !.!.!.!.!.Q u ~.{.$.].z k B ^./..                                           ",
"                              . + & (._.:.<.w A Q Q !.e e e e !.u ~.~.z G w B j [.}..                                           ",
"                                  . |.1.3 x w A Q Q !.!.e e e e v u u e x w B j 2.3.4.5..                                       ",
"                                  . 6.7.Q B w A k u u v v 8.8.v e !.Q Q A w A i 1 ! 4.9..                                       ",
"                                  . 0.a.b.!.w A c.~.d.u u d.e.f.e e !.Q A G y h | g..                                           ",
"                                  h.i.j.1 k w G c.~.k.l.l.n e.f.e e !.Q A G m.n.6 . .                                           ",
"                              . o.p.q.n.r.k w G e c.l.s.s.f 8.v e e !.Q A w <.t.u.v..                                           ",
"                              . w.x.q.y.z.A.!.Q x A u ~.~.8.e e e e !.Q A w k 1 j.B.C.                                          ",
"                                  D.E.F.G.H.I.k G A k u 8.v e e e e !.Q A w k < J.q.x.K..                                       ",
"                                  . L.M.N.O.l.b.<.e Q !.!.e e e e !.P.A !.!.A.Q.R.S.T.U..                                       ",
"                                  . V.W.G.X.Y.h Z.i `.!. + +.+ + +!.`.A k I.++G.F.E.@+                                          ",
"                                  . 0.#+F.$+%+&+*+=+`. + +-+;+ +>+,+=+,+u '+%.)+!+~+.                                           ",
"                                      {+]+3.^+/+(+_+:+-+<+<+<+<+[+}+|+1+2+3+4+5+6+                                              ",
"                                      . 7+8+9+0+a+b+c+d+e+e+e+e+f+g+h+i+j+k+l+m+.                                               ",
"                                          n+o+p+q+r+s+t+u+v+v+w+v+x+y+z+p+A+B+                                                  ",
"                                          . C+D+E+F+G+H+I+I+I+I+H+J+F+E+D+C+.                                                   ",
"                                      . . K+L+M+N+O+P+Q+R+S+S+R+T+P+O+N+M+L+U+. .                                               ",
"                                      . . V+W+X+Y+Z+`+ @.@+@+@.@ @`+Z+Y+X+@@V+. .                                               ",
"                                      . . #@$@%@&@*@=@-@;@>@>@;@-@=@*@&@%@$@#@. .                                               ",
"                                      . . ,@'@)@!@~@{@]@^@/@/@^@]@{@~@!@)@'@,@. .                                               ",
"                                  . . (@_@:@<@[@}@|@;@1@2@3@3@2@1@;@|@4@[@<@5@_@(@. .                                           ",
"                                  . . 6@7@8@9@0@a@b@c@d@e@f@f@e@d@c@b@a@0@9@8@7@6@. .                                           ",
"                                  . . g@h@Y+i@j@k@l@m@n@o@p@p@o@n@m@l@k@j@i@Y+h@g@. .                                           ",
"                                  . . q@r@s@t@u@v@w@x@y@z@z@z@z@y@x@w@v@u@t@s@r@q@. .                                           ",
"                              . . A@B@C@D@E@F@G@H@I@J@K@L@M@M@L@K@J@I@H@G@F@E@D@C@B@A@. .                                       ",
"                              . N@O@P@Q@R@S@T@U@H@V@W@X@Y@Z@Z@Y@X@W@V@H@U@T@S@R@Q@P@O@N@.                                       ",
"                              . `@ #.#+#@###. $#%#&#*#=#-#-#-#-#=#*#&#%#$#. ##@#+#.# #`@.                                       ",
"                              . ;#>#,#'#)#!#. ~#{#]#^#/#(#_#_#(#/#^#]#{#~#. !#)#'#,#>#;#.                                       ",
"                                  :#<#[#}#|#. 1#2#3#4#5#6#7#7#6#5#4#3#2#1#. |#}#[#<#:#                                          ",
"                                  . . . . . 8#9#0#a#b#c#d#e#e#d#c#b#a#0#9#8#. . . . .                                           ",
"                                          . f#g#h#i#j#k#l#m#m#l#k#j#i#h#g#f#.                                                   ",
"                                          . n#o#p#q#r#s#t#u#u#t#s#r#q#p#o#n#.                                                   ",
"                                          . v#w#x#y#z#y#A#B#B#A#y#z#y#x#w#v#.                                                   ",
"                                          . C#D#E#F#G#H#I#. . I#H#G#F#E#D#C#.                                                   ",
"                                          . J#K#L#M#N#O#P#    P#O#N#M#L#K#J#.                                                   ",
"                                          . Q#R#S#T#U#V#.     . V#U#T#S#R#Q#.                                                   ",
"                                          . W#X#Y#Z#`# $.     .  $`#Z#Y#X#W#.                                                   ",
"                                          .$+$@$#$$$%$&$.     . &$%$$$#$@$+$.$                                                  ",
"                                      . *$=$-$;$>$>$,$'$.     . '$,$>$>$;$-$=$*$.                                               ",
"                                      . )$!$~${$]$^$/$($.     . ($/$^$]${$~$!$)$.                                               ",
"                                      . _$:$<$[$}$|$1$; .     . ; 1$|$}$[$<$:$2$.                                               ",
"                                                                                                                                ",
"                                                                                                                                ",
"                                                                                                                                ",
"                                                                                                                                ",
"                                                                                                                                ",
"                                                                                                                                ",
"                                                                                                                                "};
