/* XPM */
static char * front_ok_xpm[] = {
"64 64 692 2",
"  	c #9CDB43",
". 	c #000000",
"+ 	c #040300",
"@ 	c #0B0500",
"# 	c #0A0400",
"$ 	c #010100",
"% 	c #050300",
"& 	c #33211D",
"* 	c #3E2923",
"= 	c #32201C",
"- 	c #34211D",
"; 	c #130C07",
"> 	c #140B06",
", 	c #291A16",
"' 	c #48322E",
") 	c #553C37",
"! 	c #48312E",
"~ 	c #261814",
"{ 	c #271915",
"] 	c #49322E",
"^ 	c #49322F",
"/ 	c #120806",
"( 	c #372420",
"_ 	c #402A25",
": 	c #3B2521",
"< 	c #3B2520",
"[ 	c #46302D",
"} 	c #5B423D",
"| 	c #634944",
"1 	c #634943",
"2 	c #5A413C",
"3 	c #452F2B",
"4 	c #36211D",
"5 	c #47312C",
"6 	c #48322D",
"7 	c #2E1B17",
"8 	c #060300",
"9 	c #33211C",
"0 	c #442D29",
"a 	c #503633",
"b 	c #543A36",
"c 	c #533A35",
"d 	c #583F3A",
"e 	c #684E49",
"f 	c #624843",
"g 	c #563E39",
"h 	c #513633",
"i 	c #583E39",
"j 	c #634B45",
"k 	c #5A3F3A",
"l 	c #312420",
"m 	c #191412",
"n 	c #30221E",
"o 	c #553D3A",
"p 	c #614843",
"q 	c #614944",
"r 	c #654B46",
"s 	c #664C47",
"t 	c #644B46",
"u 	c #604843",
"v 	c #5E4540",
"w 	c #654C47",
"x 	c #624944",
"y 	c #5E4641",
"z 	c #5A423F",
"A 	c #4B3734",
"B 	c #191413",
"C 	c #1A1513",
"D 	c #3B2E2A",
"E 	c #5A4540",
"F 	c #674D48",
"G 	c #654B47",
"H 	c #634A46",
"I 	c #634B46",
"J 	c #1C1615",
"K 	c #4B3834",
"L 	c #634A45",
"M 	c #624945",
"N 	c #614844",
"O 	c #604844",
"P 	c #664D48",
"Q 	c #5E4640",
"R 	c #2D1B17",
"S 	c #1E1915",
"T 	c #57413C",
"U 	c #624A45",
"V 	c #5B433F",
"W 	c #533D39",
"X 	c #503836",
"Y 	c #523A38",
"Z 	c #5A433F",
"` 	c #58413D",
" .	c #523C38",
"..	c #5A423E",
"+.	c #5F4742",
"@.	c #5F4641",
"#.	c #513734",
"$.	c #3C2722",
"%.	c #21120E",
"&.	c #1D1613",
"*.	c #55403B",
"=.	c #644A45",
"-.	c #5F4743",
";.	c #5C4541",
">.	c #523B38",
",.	c #402B28",
"'.	c #351C1C",
").	c #341B1C",
"!.	c #402826",
"~.	c #4E3735",
"{.	c #4E3734",
"].	c #402926",
"^.	c #3F2A27",
"/.	c #513A37",
"(.	c #5D4541",
"_.	c #5E4440",
":.	c #503732",
"<.	c #452D28",
"[.	c #3E2724",
"}.	c #33201C",
"|.	c #2B1D1A",
"1.	c #4F3A35",
"2.	c #5D4440",
"3.	c #5E4642",
"4.	c #59423E",
"5.	c #553E3B",
"6.	c #775950",
"7.	c #6F5248",
"8.	c #3D2521",
"9.	c #120000",
"0.	c #3D2928",
"a.	c #775850",
"b.	c #76594F",
"c.	c #604642",
"d.	c #513D39",
"e.	c #57403C",
"f.	c #5D4441",
"g.	c #543C37",
"h.	c #4B342F",
"i.	c #422B26",
"j.	c #311E1B",
"k.	c #3E2823",
"l.	c #462F2B",
"m.	c #4D3733",
"n.	c #553E3C",
"o.	c #543E3B",
"p.	c #503B38",
"q.	c #81615A",
"r.	c #B68C7F",
"s.	c #B2897C",
"t.	c #694C45",
"u.	c #29131A",
"v.	c #7B5D56",
"w.	c #B48B7F",
"x.	c #B58C7F",
"y.	c #7F6059",
"z.	c #4D3836",
"A.	c #513B38",
"B.	c #2B1E1A",
"C.	c #2B1916",
"D.	c #351F1D",
"E.	c #39201C",
"F.	c #402A26",
"G.	c #4F3835",
"H.	c #644B47",
"I.	c #806259",
"J.	c #AC8578",
"K.	c #D7A798",
"L.	c #D3A494",
"M.	c #9F796E",
"N.	c #614640",
"O.	c #3E2827",
"P.	c #82645C",
"Q.	c #CA9E8F",
"R.	c #D5A596",
"S.	c #AC8479",
"T.	c #7E6059",
"U.	c #503A38",
"V.	c #56403C",
"W.	c #523D39",
"X.	c #0E0C0C",
"Y.	c #26130F",
"Z.	c #392320",
"`.	c #493432",
" +	c #80625A",
".+	c #B78E81",
"++	c #E1B09F",
"@+	c #E0AD9E",
"#+	c #CFA091",
"$+	c #A98377",
"%+	c #684D47",
"&+	c #7C5E56",
"*+	c #C89A8D",
"=+	c #E0AE9E",
"-+	c #7C5E57",
";+	c #4B3735",
">+	c #4F3C39",
",+	c #4F3B37",
"'+	c #010A07",
")+	c #291817",
"!+	c #3B2926",
"~+	c #443330",
"{+	c #8B6C63",
"]+	c #CD9F91",
"^+	c #DDAD9C",
"/+	c #CC9F90",
"(+	c #CC9E8F",
"_+	c #DEAE9E",
":+	c #D0A293",
"<+	c #9D786E",
"[+	c #9E786E",
"}+	c #D1A294",
"|+	c #E0AF9E",
"1+	c #CEA091",
"2+	c #9A776D",
"3+	c #7B5E56",
"4+	c #5B4540",
"5+	c #4C3936",
"6+	c #533F3A",
"7+	c #342724",
"8+	c #0B0E0A",
"9+	c #3D2C2A",
"0+	c #4A3734",
"a+	c #493634",
"b+	c #CD9F90",
"c+	c #CB9E8F",
"d+	c #896A5F",
"e+	c #8E6F64",
"f+	c #D4A799",
"g+	c #E5B6A4",
"h+	c #CFA293",
"i+	c #E5B5A5",
"j+	c #D5A899",
"k+	c #927266",
"l+	c #806358",
"m+	c #B58B7F",
"n+	c #B38A7D",
"o+	c #74584F",
"p+	c #382623",
"q+	c #5B4541",
"r+	c #463532",
"s+	c #121110",
"t+	c #1C1715",
"u+	c #4A3834",
"v+	c #60413F",
"w+	c #724645",
"x+	c #A0726B",
"y+	c #D0A092",
"z+	c #BD9385",
"A+	c #3C2D29",
"B+	c #4F4037",
"C+	c #CCA394",
"D+	c #F0BFAE",
"E+	c #E9B6A6",
"F+	c #F1BFAE",
"G+	c #CDA395",
"H+	c #53433A",
"I+	c #47332E",
"J+	c #C09587",
"K+	c #CF9F91",
"L+	c #9A6C63",
"M+	c #663536",
"N+	c #593937",
"O+	c #543F3D",
"P+	c #523F3A",
"Q+	c #453431",
"R+	c #0E0F0E",
"S+	c #2E201F",
"T+	c #41312F",
"U+	c #523D3A",
"V+	c #754947",
"W+	c #9D5858",
"X+	c #C07D77",
"Y+	c #D9A294",
"Z+	c #BE9284",
"`+	c #3D2E28",
" @	c #4F3E38",
".@	c #CBA294",
"+@	c #F1C0AF",
"@@	c #EFBEAD",
"#@	c #52413B",
"$@	c #46332C",
"%@	c #BF9587",
"&@	c #DAA395",
"*@	c #BF7C76",
"=@	c #9A5454",
"-@	c #6D3F3F",
";@	c #3C2C2A",
">@	c #1A1916",
",@	c #000502",
"'@	c #2E201D",
")@	c #3F2F2D",
"!@	c #4D3935",
"~@	c #714444",
"{@	c #9B5555",
"]@	c #BF7C74",
"^@	c #917066",
"/@	c #95766A",
"(@	c #D5AA9B",
"_@	c #F2C1B0",
":@	c #D6AA9C",
"<@	c #96776B",
"[@	c #927167",
"}@	c #C07D75",
"|@	c #9B5355",
"1@	c #693B3B",
"2@	c #2A1D1C",
"3@	c #08080B",
"4@	c #382827",
"5@	c #503031",
"6@	c #663637",
"7@	c #996A63",
"8@	c #CE9E90",
"9@	c #DFAF9F",
"0@	c #D7A99A",
"a@	c #D9AD9D",
"b@	c #E9B9A9",
"c@	c #EFBEAE",
"d@	c #F1BFAF",
"e@	c #DAAD9E",
"f@	c #D8AA9B",
"g@	c #E0AF9F",
"h@	c #CF9E90",
"i@	c #9A6B64",
"j@	c #653638",
"k@	c #4C2B2D",
"l@	c #291B1D",
"m@	c #130809",
"n@	c #1E0B13",
"o@	c #230B12",
"p@	c #6E524B",
"q@	c #B0877A",
"r@	c #D4A596",
"s@	c #E9B7A7",
"t@	c #F3C0AF",
"u@	c #F2BFAE",
"v@	c #B0877B",
"w@	c #6F534C",
"x@	c #261015",
"y@	c #220F15",
"z@	c #170C0C",
"A@	c #0A0007",
"B@	c #422C2A",
"C@	c #6B4E48",
"D@	c #A0796F",
"E@	c #D3A395",
"F@	c #EBB8A8",
"G@	c #F1BDAE",
"H@	c #F0BEAE",
"I@	c #F2BFAF",
"J@	c #D3A495",
"K@	c #A07A6F",
"L@	c #6C4F49",
"M@	c #432D2B",
"N@	c #10000B",
"O@	c #61423D",
"P@	c #A47C70",
"Q@	c #CB9D8E",
"R@	c #E3B1A2",
"S@	c #EDB9AA",
"T@	c #ECB9A9",
"U@	c #EEB9AA",
"V@	c #E4B2A2",
"W@	c #A57C71",
"X@	c #62433E",
"Y@	c #160000",
"Z@	c #3D1D1F",
"`@	c #88655C",
" #	c #C99A8C",
".#	c #E3AE9F",
"+#	c #E3AE9E",
"@#	c #E3AF9E",
"##	c #E3AF9F",
"$#	c #CA9A8C",
"%#	c #88665D",
"&#	c #3E1F21",
"*#	c #180000",
"=#	c #242F1F",
"-#	c #001200",
";#	c #473029",
">#	c #B68F81",
",#	c #D7AA9A",
"'#	c #D6AA99",
")#	c #D6AB99",
"!#	c #D7AB9A",
"~#	c #B69181",
"{#	c #001500",
"]#	c #252F21",
"^#	c #223120",
"/#	c #4C6047",
"(#	c #37583B",
"_#	c #4B3C36",
":#	c #AE9584",
"<#	c #CDB29D",
"[#	c #CDB09B",
"}#	c #4D3E37",
"|#	c #38583C",
"1#	c #4D6048",
"2#	c #233221",
"3#	c #374131",
"4#	c #587253",
"5#	c #4B6B4A",
"6#	c #001B00",
"7#	c #5E544B",
"8#	c #B4A494",
"9#	c #D2C0AC",
"0#	c #D1C0AC",
"a#	c #CEBCA8",
"b#	c #CAB7A1",
"c#	c #AB9987",
"d#	c #574B43",
"e#	c #001F00",
"f#	c #4C6C4D",
"g#	c #597254",
"h#	c #384131",
"i#	c #3B4230",
"j#	c #5C7254",
"k#	c #526C4D",
"l#	c #072C1A",
"m#	c #716660",
"n#	c #C5B8A9",
"o#	c #E3D4C4",
"p#	c #E3D3C2",
"q#	c #DCCBB9",
"r#	c #CFBDA9",
"s#	c #AD9A88",
"t#	c #5F5048",
"u#	c #0E2E1D",
"v#	c #536E50",
"w#	c #5C7255",
"x#	c #3C4331",
"y#	c #404736",
"z#	c #667A5D",
"A#	c #5E7559",
"B#	c #29392A",
"C#	c #7B706A",
"D#	c #D0C1B4",
"E#	c #EDDDCE",
"F#	c #E6D5C5",
"G#	c #DAC8B6",
"H#	c #B8A594",
"I#	c #6A5B54",
"J#	c #2B3A2B",
"K#	c #60755B",
"L#	c #677A5E",
"M#	c #414836",
"N#	c #040000",
"O#	c #110000",
"P#	c #140000",
"Q#	c #4C5042",
"R#	c #76876D",
"S#	c #6F826A",
"T#	c #384537",
"U#	c #7C7069",
"V#	c #EEDDCE",
"W#	c #EBDBCB",
"X#	c #E7D7C6",
"Y#	c #C8B7A9",
"Z#	c #776963",
"`#	c #394537",
" $	c #1F0813",
".$	c #2B0B15",
"+$	c #200001",
"@$	c #77876D",
"#$	c #70846A",
"$$	c #3B463A",
"%$	c #776A63",
"&$	c #C7B8A9",
"*$	c #E8D6C6",
"=$	c #ECDBCB",
"-$	c #EEDECE",
";$	c #D0C0B3",
">$	c #7D706A",
",$	c #3B4639",
"'$	c #200000",
")$	c #2D2123",
"!$	c #362328",
"~$	c #24000F",
"{$	c #424936",
"]$	c #697A5E",
"^$	c #64775C",
"/$	c #353F2E",
"($	c #6F5E55",
"_$	c #BBA695",
":$	c #DDC9B6",
"<$	c #E9D6C5",
"[$	c #F0DECF",
"}$	c #F0DECE",
"|$	c #D2C2B5",
"1$	c #7F726B",
"2$	c #343D2C",
"3$	c #61775A",
"4$	c #687A5E",
"5$	c #424836",
"6$	c #24000E",
"7$	c #2C2123",
"8$	c #2D272A",
"9$	c #312628",
"0$	c #150003",
"a$	c #2B3220",
"b$	c #506146",
"c$	c #4C5E43",
"d$	c #282D1E",
"e$	c #74635A",
"f$	c #BFAA98",
"g$	c #DEC8B5",
"h$	c #E6D1BE",
"i$	c #ECD9C8",
"j$	c #D4C3B6",
"k$	c #83746E",
"l$	c #252B1A",
"m$	c #495D40",
"n$	c #2B321F",
"o$	c #140002",
"p$	c #2D262A",
"q$	c #0E141A",
"r$	c #2E2A2B",
"s$	c #3A3232",
"t$	c #2C2426",
"u$	c #212B12",
"v$	c #222611",
"w$	c #190000",
"x$	c #81726A",
"y$	c #CFBDAD",
"z$	c #E7D2C0",
"A$	c #DFCAB6",
"B$	c #E1CDB8",
"C$	c #EDDAC9",
"D$	c #D6C5B7",
"E$	c #857870",
"F$	c #150000",
"G$	c #202406",
"H$	c #20290F",
"I$	c #2C2326",
"J$	c #3A3132",
"K$	c #0E131A",
"L$	c #362C27",
"M$	c #81675F",
"N$	c #997A70",
"O$	c #93736B",
"P$	c #785D55",
"Q$	c #321E18",
"R$	c #080000",
"S$	c #756861",
"T$	c #BBAEA3",
"U$	c #CEBEB1",
"V$	c #BFAE9D",
"W$	c #BFAE9C",
"X$	c #BBADA2",
"Y$	c #746760",
"Z$	c #020000",
"`$	c #81675E",
" %	c #6F574F",
".%	c #C79F90",
"+%	c #DCAC9D",
"@%	c #B98F81",
"#%	c #674B42",
"$%	c #453A38",
"%%	c #73706E",
"&%	c #7D7C7A",
"*%	c #72716E",
"=%	c #716F6E",
"-%	c #413837",
";%	c #7C6157",
">%	c #CBA092",
",%	c #DFB0A0",
"'%	c #D7A898",
")%	c #B58B7D",
"!%	c #65493F",
"~%	c #000008",
"{%	c #221A24",
"]%	c #251F28",
"^%	c #1F2B37",
"/%	c #1D3B4C",
"(%	c #144254",
"_%	c #084052",
":%	c #073F52",
"<%	c #124253",
"[%	c #1B3A4C",
"}%	c #1E2936",
"|%	c #241D27",
"1%	c #211923",
"2%	c #000006",
"3%	c #7F645A",
"4%	c #84675C",
"5%	c #7F6055",
"6%	c #674B41",
"7%	c #260B00",
"8%	c #17313D",
"9%	c #394853",
"0%	c #44525B",
"a%	c #455561",
"b%	c #405563",
"c%	c #3C5663",
"d%	c #3C5463",
"e%	c #3B5562",
"f%	c #3F5463",
"g%	c #455461",
"h%	c #44515B",
"i%	c #384853",
"j%	c #16313C",
"k%	c #260A00",
"l%	c #7F5F55",
"m%	c #00000F",
"n%	c #27404C",
"o%	c #425662",
"p%	c #50636D",
"q%	c #566671",
"r%	c #54656F",
"s%	c #51626D",
"t%	c #4C5E69",
"u%	c #50626D",
"v%	c #54646F",
"w%	c #273F4C",
"x%	c #000412",
"y%	c #2D414C",
"z%	c #465963",
"A%	c #55646E",
"B%	c #596872",
"C%	c #586771",
"D%	c #51626C",
"E%	c #475763",
"F%	c #455963",
"G%	c #000C16",
"H%	c #31434D",
"I%	c #485A64",
"J%	c #57656F",
"K%	c #5A6972",
"L%	c #57656E",
"M%	c #4A5A64",
"N%	c #374750",
"O%	c #000C15",
"P%	c #001319",
"Q%	c #34444E",
"R%	c #4A5B65",
"S%	c #576770",
"T%	c #5A6770",
"U%	c #4F5D68",
"V%	c #3B4A53",
"W%	c #18272C",
"X%	c #07181D",
"Y%	c #364650",
"Z%	c #55646D",
"`%	c #526069",
" &	c #404E57",
".&	c #28363F",
"+&	c #0E1C22",
"@&	c #384851",
"#&	c #475964",
"$&	c #4B5B66",
"%&	c #425159",
"&&	c #273239",
"*&	c #000409",
"=&	c #0C1419",
"-&	c #353E47",
";&	c #414D55",
">&	c #414C55",
",&	c #343E45",
"'&	c #0B0F11",
")&	c #070000",
"!&	c #2F2629",
"~&	c #3B3335",
"{&	c #3A3234",
"]&	c #2E2527",
"^&	c #050000",
"/&	c #282110",
"(&	c #322819",
"_&	c #3F2F20",
":&	c #422F23",
"<&	c #3B231B",
"[&	c #2C1105",
"}&	c #282215",
"|&	c #48402F",
"1&	c #544A37",
"2&	c #564B39",
"3&	c #514333",
"4&	c #412E23",
"5&	c #2C140D",
"6&	c #0B0000",
"7&	c #272216",
"8&	c #4B4232",
"9&	c #594F3C",
"0&	c #504535",
"a&	c #3F3025",
"b&	c #29140F",
"c&	c #090000",
"d&	c #130F06",
"e&	c #322B1F",
"f&	c #3B3527",
"g&	c #342D20",
"h&	c #271B13",
"i&	c #160401",
"                                                                                                                                ",
"                                                                                                                                ",
"                                                                                                                                ",
"                                                                                                                                ",
"                                                                                                                                ",
"                                                                                                                                ",
"                                                  . . . .         . .                                                           ",
"                                                  + @ # $         % %                                                           ",
"                                      . . . . . . & * * = . . . . - - . .                                                       ",
"                                      ; > # . . , ' ) ) ! ~ . . { ] ^ , .                                                       ",
"                                  . / ( _ * : < [ } | 1 2 3 4 4 5 } } 6 7 . .                                                   ",
"                                  . 8 9 0 a b c d | e e f g a h i | j k ' l m                                                   ",
"                                      . n o f p q r s s t u v v u r w x y z A B .                                               ",
"                                      C D E F s G t H H H H H H I t G s F e z l .                                               ",
"                                  . J K E L w H M N O u u u u u O q M H s P Q ' R . .                                           ",
"                                  . S T F s U u V W X Y o Z `  . ...+.N L G @.#.$.%..                                           ",
"                                  . &.*.w =.-.;.>.,.'.).!.~.{.].^./.V (.u L _.:.<.[.}.$ .                                       ",
"                                  . |.1.2.3.4.5.p 6.7.8.9.0.(.a.b.c.d.e.;.u f.g.h.i.j.. .                                       ",
"                              . . R k.l.m.n.o.p.q.r.s.t.. u.v.w.x.y.z.A.` ;.+.v 1.B..                                           ",
"                              . . C.D.E.F.G.H.I.J.K.L.M.N.O.P.Q.R.S.T.3.U.V.+.M W.X..                                           ",
"                                  . . Y.Z.`. +.+R.++@+#+$+%+&+*+=+R.x.-+;+>+V -.,+'+.                                           ",
"                                  . . )+!+~+{+]+^+/+(+_+:+<+[+}+|+1+r.2+3+4+5+4.6+7+8+                                          ",
"                                  . . 9+0+a+{+b+c+d+e+f+g+h+h+i+j+k+l+m+n+o+p+,+q+T r+s+.                                       ",
"                                  . t+u+v+w+x+y+z+A+B+C+D+E+E+F+G+H+I+J+K+L+M+N+O+P+Q+R+.                                       ",
"                              . . S+T+U+V+W+X+Y+Z+`+ @.@+@@@@@+@C+#@$@%@&@*@=@-@;@>@,@                                          ",
"                              . . '@)@!@~@{@]@Y+c+^@/@(@+@_@_@+@:@<@[@/+&@}@|@1@2@. .                                           ",
"                                  . 3@4@5@6@7@8@9@0@a@b@D+c@c@d@b@e@f@g@h@i@j@k@l@. .                                           ",
"                                  . . m@n@o@p@q@r@s@F+t@F+@@@@F+t@u@s@r@v@w@x@y@z@. .                                           ",
"                                      . . A@B@C@D@E@F@G@d@H@H@I@G@F@J@K@L@M@N@. .                                               ",
"                                      . . . . . O@P@Q@R@S@T@T@U@V@Q@W@X@. . . . .                                               ",
"                                          . . . Y@Z@`@ #.#+#@###$#%#&#*#. . .                                                   ",
"                                          . . =#-#. ;#>#,#'#)#!#~#' . {#]#. .                                                   ",
"                                      . . . ^#/#(#. _#:#<#[#[#<#:#}#. |#1#2#. . .                                               ",
"                                      . . . 3#4#5#6#7#8#9#0#a#b#c#d#e#f#g#h#. . .                                               ",
"                                      . . . i#j#k#l#m#n#o#p#q#r#s#t#u#v#w#x#. . .                                               ",
"                                      . . . y#z#A#B#C#D#E#E#F#G#H#I#J#K#L#M#. . .                                               ",
"                                  . . N#O#P#Q#R#S#T#U#D#V#V#W#X#Y#Z#`#S#R#Q#P#9.N#. .                                           ",
"                                  . .  $.$+$Q#@$#$$$%$&$*$=$-$-$;$>$,$#$R#Q#'$.$ $. .                                           ",
"                                  . . )$!$~${$]$^$/$($_$:$<$[$}$|$1$2$3$4$5$6$!$7$. .                                           ",
"                                  . . 8$9$0$a$b$c$d$e$f$g$h$i$}$j$k$l$m$b$n$o$9$p$. .                                           ",
"                              . . q$r$s$t$. . u$v$w$x$y$z$A$B$C$D$E$F$G$H$. . I$J$r$K$. .                                       ",
"                              . L$M$N$O$P$Q$. . . R$S$T$U$V$W$U$X$Y$Z$. . . Q$P$O$N$`$L$.                                       ",
"                              .  %.%i++%@%#%. . . . $%%%&%*%*%&%=%-%. . . . #%@%+%i+.% %.                                       ",
"                              . ;%>%,%'%)%!%. ~%{%]%^%/%(%_%:%<%[%}%|%1%2%. !%)%'%,%>%;%.                                       ",
"                                  3%4%5%6%7%. 8%9%0%a%b%c%d%d%e%f%g%h%i%j%. k%6%l%4%3%                                          ",
"                                  . . . . . m%n%o%p%q%r%s%t%t%u%v%q%p%o%w%m%. . . . .                                           ",
"                                          . x%y%z%A%B%C%D%E%E%D%C%B%A%F%y%x%.                                                   ",
"                                          . G%H%I%J%K%L%M%N%N%M%L%K%J%I%H%O%.                                                   ",
"                                          . P%Q%R%S%T%U%V%W%W%V%U%T%S%R%Q%P%.                                                   ",
"                                          . X%Y%R%Z%`% &.&. . .& &`%Z%R%Y%X%.                                                   ",
"                                          . +&@&#&$&%&&&*&    *&&&%&$&#&@&+&.                                                   ",
"                                          . =&-&;&>&,&'&.     . '&,&>&;&-&=&.                                                   ",
"                                          . )&!&~&{&]&^&.     . ^&]&{&~&!&)&.                                                   ",
"                                          /&(&_&:&<&[&R$.     . R$[&<&:&_&(&/&                                                  ",
"                                      . }&|&1&2&3&4&5&6&.     . 6&5&4&3&2&1&|&}&.                                               ",
"                                      . 7&8&9&9&0&a&b&c&.     . c&b&a&0&9&9&8&7&.                                               ",
"                                      . d&e&f&f&g&h&i&. .     . . i&h&g&f&f&e&d&.                                               ",
"                                                                                                                                ",
"                                                                                                                                ",
"                                                                                                                                ",
"                                                                                                                                ",
"                                                                                                                                ",
"                                                                                                                                ",
"                                                                                                                                "};
