/* XPM */
static char * banana2_xpm[] = {
"64 64 26 1",
" 	c #9CDB43",
".	c #000000",
"+	c #E1C18B",
"@	c #C99B4D",
"#	c #694811",
"$	c #825E22",
"%	c #679300",
"&	c #4A6900",
"*	c #C0F675",
"=	c #A5AA0F",
"-	c #39973A",
";	c #BDC31B",
">	c #662C00",
",	c #FEEB60",
"'	c #E1AA17",
")	c #FCDD57",
"!	c #9C6B00",
"~	c #F4BA16",
"{	c #BA7200",
"]	c #FACC24",
"^	c #FFEF8B",
"/	c #F6CE37",
"(	c #755A1D",
"_	c #2A0B00",
":	c #867C58",
"<	c #8A4713",
"                                                                ",
"                                                                ",
"                                                                ",
"                                                                ",
"                                                                ",
"                                                                ",
"                                                                ",
"                                                                ",
"                                                                ",
"                                                                ",
"                                                                ",
"                                                                ",
"                                                                ",
"                                                                ",
"                                                                ",
"                                                                ",
"                                                                ",
"                                                                ",
"                                                                ",
"                          .....                                 ",
"                       ...++@#.                                 ",
"                     ..@+@$#%&.  **                             ",
"                     .$##%===.   ***  ***                       ",
"                     .%==&=%=.  --** ***                        ",
"                      .=%.%.;>.  --* **--                       ",
"                      .=..=.,,;.     *--                        ",
"                      .;..;>',,,.                               ",
"                      >)>!',>,,,,>.                             ",
"                     .~,~>',,{,,,,~>.                           ",
"                     >],]>',,,{^,,,)~>....                      ",
"                    .',,,~>/,,,{~^^)))))((_                     ",
"                    .'/,,,{~,,,,{{~^^^^)(:_                     ",
"                    .'~,,,~{),,,,,{{{''';_{_.                   ",
"                    .''^,,,{~),,,,))){<>>_')(.                  ",
"                    .''~),,~{~^^))))))))((_^'.                  ",
"                    .{''^),,~{{~^^^^^)~':(_'.                   ",
"                     >''~^)))]~{{{'''''';_..                    ",
"                     .>''~^^))))]~{<>>_~>.                      ",
"                      .>'''~^^)))))))((_'(.                     ",
"                      .{>'''''~^^^)^):(_)(.                     ",
"                       .{.>'''''''~]);_)'.                      ",
"                      **.{{.>>'''~])>....                       ",
"                       **..{{{>>>...                            ",
"                      --** ......                               ",
"                       --*                                      ",
"                                                                ",
"                                                                ",
"                                                                ",
"                                                                ",
"                                                                ",
"                                                                ",
"                                                                ",
"                                                                ",
"                                                                ",
"                                                                ",
"                                                                ",
"                                                                ",
"                                                                ",
"                                                                ",
"                                                                ",
"                                                                ",
"                                                                ",
"                                                                ",
"                                                                "};
